<?xml version="1.0" standalone="no"?>
<!DOCTYPE svg PUBLIC "-//W3C//DTD SVG 20010904//EN"
 "http://www.w3.org/TR/2001/REC-SVG-20010904/DTD/svg10.dtd">
<svg version="1.0" xmlns="http://www.w3.org/2000/svg"
 width="574.000000pt" height="574.000000pt" viewBox="0 0 574.000000 574.000000"
 preserveAspectRatio="xMidYMid meet">

<g transform="translate(0.000000,574.000000) scale(0.100000,-0.100000)"
fill="#000000" stroke="none">
<path d="M2725 4289 c-167 -16 -390 -84 -529 -161 -294 -163 -542 -441 -653
-733 -31 -80 -76 -253 -87 -332 l-6 -43 1420 0 1420 0 -6 43 c-3 23 -16 87
-29 142 -77 332 -268 616 -549 819 -174 125 -299 183 -501 231 -167 40 -314
51 -480 34z m237 -350 c13 -5 32 -23 43 -39 16 -24 22 -26 39 -16 11 6 26 17
32 25 14 18 89 22 110 6 24 -17 28 -99 7 -133 -10 -15 -21 -30 -26 -33 -5 -3
4 -16 19 -28 40 -31 55 -72 43 -115 -10 -37 -22 -44 -80 -45 -32 0 -41 5 -64
38 -14 22 -28 48 -29 58 -2 11 -13 19 -31 21 -43 5 -49 -11 -21 -53 18 -26 26
-51 26 -80 0 -40 -4 -46 -47 -77 -67 -47 -237 -151 -302 -183 -119 -59 -161
-62 -161 -9 0 29 119 264 180 355 85 128 108 139 193 96 38 -20 47 -21 52 -10
11 30 4 49 -22 61 -53 24 -76 51 -78 90 -3 61 11 75 77 81 9 0 28 -4 40 -10z"/>
<path d="M2904 3904 c-25 -10 -1 -54 42 -78 24 -14 44 -21 44 -16 0 5 -5 12
-11 15 -6 4 -8 14 -5 22 3 8 -6 25 -21 39 -27 25 -30 26 -49 18z"/>
<path d="M3118 3862 c2 -8 -4 -16 -17 -19 -12 -3 -21 -13 -21 -25 0 -14 -6
-18 -22 -16 -18 2 -23 -3 -28 -28 -7 -30 -6 -31 29 -29 31 2 36 6 36 26 0 18
5 24 21 23 14 0 20 4 17 13 -3 7 -1 19 4 26 22 27 21 42 -2 42 -14 0 -21 -5
-17 -13z"/>
<path d="M2777 3663 l-35 -48 34 -28 c36 -30 43 -54 19 -63 -9 -4 -23 4 -36
20 -11 14 -27 26 -34 26 -8 0 -31 -30 -51 -66 l-36 -65 22 -24 c13 -14 20 -31
17 -39 -9 -22 -24 -20 -37 4 -6 11 -14 20 -19 20 -10 0 -53 -101 -46 -109 9
-8 205 92 205 106 0 6 -10 19 -21 27 -13 9 -19 21 -16 30 9 22 21 20 56 -10
l31 -26 45 29 c51 32 55 44 20 67 -15 10 -22 22 -19 31 9 23 42 18 68 -10 20
-22 25 -23 36 -10 25 30 -34 131 -93 158 -69 32 -72 31 -110 -20z"/>
<path d="M3097 3682 c14 -36 35 -60 58 -64 34 -7 40 18 12 50 -26 31 -80 42
-70 14z"/>
<path d="M590 2282 c0 -4 38 -98 85 -210 47 -111 85 -205 85 -208 0 -4 -38
-98 -85 -209 -47 -111 -85 -204 -85 -208 0 -4 188 -7 417 -7 l418 0 -213 213
-212 212 0 213 0 212 -205 0 c-113 0 -205 -3 -205 -8z"/>
<path d="M4740 2078 l0 -213 -212 -212 -213 -213 418 0 c229 0 417 4 417 8 0
4 -35 91 -79 192 -43 102 -81 195 -85 207 -7 21 13 77 115 311 27 62 49 117
49 122 0 6 -81 10 -205 10 l-205 0 0 -212z"/>
</g>
</svg>
